<?xml version="1.0" encoding="utf-8"?>
<!-- Generator: Adobe Illustrator 24.2.1, SVG Export Plug-In . SVG Version: 6.00 Build 0)  -->
<svg version="1.1" xmlns="http://www.w3.org/2000/svg" xmlns:xlink="http://www.w3.org/1999/xlink" x="0px" y="0px"
	 viewBox="0 0 500 500" style="enable-background:new 0 0 500 500;" xml:space="preserve">
<style type="text/css">
	.st0{fill:#1DBF73;}
	.st1{fill:#FFFFFF;}
	.st2{fill:#003912;}
</style>
<g id="Background">
	<rect class="st0" width="500" height="500"/>
</g>
<g id="Fiverr_Logo">
	<g>
		<path class="st1" d="M373.05,231.17c-7.07,0-11.89,4.65-13.79,10.06v-9.91H338.2v64.28h21.06v-13.78v-21.33
			c0-6.41,5.19-11.6,11.6-11.6h10.46v-17.56L373.05,231.17z"/>
		<path class="st1" d="M332.18,231.17c-7.07,0-11.89,4.65-13.79,10.06v-9.91h-21.06v64.28h21.06v-13.78v-21.33
			c0-6.41,5.19-11.6,11.6-11.6h10.46v-17.56L332.18,231.17z"/>
		<rect x="145.75" y="231.32" class="st1" width="21.06" height="64.28"/>
		<polygon class="st1" points="211.71,231.32 200.41,268.47 189.12,231.32 168.06,231.32 190.93,295.6 192.16,295.6 208.67,295.6 
			209.9,295.6 232.77,231.32 		"/>
		
			<rect x="121.03" y="202.58" transform="matrix(6.123234e-17 -1 1 6.123234e-17 -110.2826 369.3919)" class="st1" width="17.04" height="74.51"/>
		<path class="st1" d="M125.67,227.03c0-3.75,3.04-6.8,6.8-6.8h13.29V202.6H127.5c-12.64,0-22.89,10.25-22.89,22.89v70.11h21.06
			V227.03z"/>
		<path class="st1" d="M262.63,279.78c-8.74,0-13.38-4.79-13.99-10.22l0,0l0-0.03c-0.04-0.39-0.07-0.79-0.07-1.19h23.76h20.88v-6.65
			c0-17.25-13.99-31.24-31.24-31.24h-2.56c-17.25,0-31.24,13.99-31.24,31.24v3.53c0,17.25,13.99,31.24,31.24,31.24h5.7
			c11.81,0,21.92-7.29,26.08-17.62l-18.58-5.42C272.6,273.42,270.38,279.78,262.63,279.78z M259.44,245.55h2.01
			c5.84,0,10.59,4.61,10.85,10.39h-23.71C248.84,250.16,253.6,245.55,259.44,245.55z"/>
		<path class="st2" d="M394.61,271.22c-7.23,0-13.09,5.86-13.09,13.09v0c0,7.23,5.86,13.09,13.09,13.09s13.09-5.86,13.09-13.09v0
			C407.7,277.08,401.84,271.22,394.61,271.22z"/>
	</g>
</g>
</svg>
